<svg width="15" height="14" viewBox="0 0 15 14" fill="none" xmlns="http://www.w3.org/2000/svg">
<path d="M6.72961 0.927049C7.02896 0.00573789 8.33237 0.00574044 8.63172 0.927051L9.58903 3.87336C9.72291 4.28538 10.1069 4.56434 10.5401 4.56434H13.638C14.6067 4.56434 15.0095 5.80395 14.2258 6.37336L11.7195 8.19427C11.369 8.44892 11.2224 8.90028 11.3563 9.31231L12.3136 12.2586C12.6129 13.1799 11.5584 13.946 10.7747 13.3766L8.26845 11.5557C7.91796 11.3011 7.44337 11.3011 7.09288 11.5557L4.5866 13.3766C3.80289 13.946 2.74841 13.1799 3.04776 12.2586L4.00507 9.3123C4.13895 8.90028 3.99229 8.44892 3.6418 8.19427L1.13552 6.37335C0.351809 5.80395 0.754587 4.56434 1.72331 4.56434H4.82124C5.25447 4.56434 5.63842 4.28538 5.77229 3.87336L6.72961 0.927049Z" fill="#FFA858"/>
</svg>
